<svg width="353" height="353" viewBox="0 0 353 353" fill="none" xmlns="http://www.w3.org/2000/svg">
<path d="M216.909 25.6914C219.821 14.8239 213.374 3.52841 202.244 1.88737C172.339 -2.52164 141.68 0.809006 113.248 11.7231C78.4507 25.0805 48.7751 49.1113 28.4747 80.3712C8.17429 111.631 -1.7088 148.515 0.241908 185.737C2.19262 222.959 15.877 258.608 39.3337 287.575C62.7905 316.542 94.8153 337.339 130.818 346.986C166.821 356.633 204.954 354.634 239.752 341.277C274.549 327.92 304.225 303.889 324.525 272.629C341.112 247.087 350.745 217.791 352.649 187.623C353.358 176.395 343.65 167.74 332.415 168.329C321.179 168.918 312.707 178.546 311.61 189.743C309.498 211.287 302.253 232.119 290.356 250.439C274.741 274.483 251.916 292.966 225.151 303.24C198.386 313.514 169.056 315.052 141.363 307.631C113.671 300.211 89.0388 284.215 70.9968 261.935C52.9547 239.655 42.4292 212.235 40.9288 183.605C39.4284 154.975 47.0301 126.605 62.6444 102.561C78.2588 78.5174 101.084 60.0338 127.849 49.7597C148.242 41.9314 170.125 39.1755 191.638 41.5893C202.818 42.8438 213.997 36.5588 216.909 25.6914Z" fill="white"/>
<path d="M105.816 211.152C100.504 211.152 95.96 210.224 92.184 208.368C88.408 206.512 85.496 204.048 83.448 200.976C81.464 197.84 80.472 194.48 80.472 190.896C80.472 188.72 80.856 186.64 81.624 184.656C82.392 182.608 83.576 180.752 85.176 179.088C86.84 177.36 88.952 175.888 91.512 174.672C88.376 173.008 86.04 170.928 84.504 168.432C82.968 165.936 82.2 163.312 82.2 160.56C82.2 157.168 83.128 154.064 84.984 151.248C86.904 148.368 89.624 146.064 93.144 144.336C96.664 142.544 100.888 141.648 105.816 141.648C110.808 141.648 115.064 142.544 118.584 144.336C122.104 146.064 124.792 148.368 126.648 151.248C128.504 154.064 129.432 157.168 129.432 160.56C129.432 163.312 128.664 165.936 127.128 168.432C125.656 170.928 123.32 173.008 120.12 174.672C122.744 175.888 124.856 177.36 126.456 179.088C128.12 180.752 129.336 182.608 130.104 184.656C130.872 186.64 131.256 188.72 131.256 190.896C131.256 194.48 130.232 197.84 128.184 200.976C126.2 204.048 123.32 206.512 119.544 208.368C115.768 210.224 111.192 211.152 105.816 211.152ZM105.816 203.088C109.336 203.088 112.28 202.512 114.648 201.36C117.08 200.144 118.904 198.608 120.12 196.752C121.4 194.896 122.04 192.912 122.04 190.8C122.04 187.344 120.632 184.464 117.816 182.16C115 179.856 111 178.704 105.816 178.704C100.696 178.704 96.728 179.856 93.912 182.16C91.096 184.464 89.688 187.344 89.688 190.8C89.688 192.912 90.296 194.896 91.512 196.752C92.792 198.608 94.616 200.144 96.984 201.36C99.416 202.512 102.36 203.088 105.816 203.088ZM105.816 170.832C110.424 170.832 113.976 169.872 116.472 167.952C119.032 166.032 120.312 163.504 120.312 160.368C120.312 158.448 119.736 156.72 118.584 155.184C117.496 153.584 115.864 152.304 113.688 151.344C111.576 150.32 108.952 149.808 105.816 149.808C102.744 149.808 100.12 150.32 97.944 151.344C95.832 152.304 94.2 153.584 93.048 155.184C91.96 156.72 91.416 158.448 91.416 160.368C91.416 163.504 92.664 166.032 95.16 167.952C97.72 169.872 101.272 170.832 105.816 170.832Z" fill="white"/>
<path d="M167.888 211.248C163.216 211.248 159.024 210.224 155.312 208.176C151.664 206.128 148.752 203.344 146.576 199.824C144.464 196.304 143.408 192.368 143.408 188.016V164.784C143.408 160.432 144.464 156.496 146.576 152.976C148.752 149.456 151.664 146.704 155.312 144.72C159.024 142.672 163.216 141.648 167.888 141.648C172.496 141.648 176.624 142.672 180.272 144.72C183.92 146.768 186.8 149.552 188.912 153.072C191.088 156.528 192.176 160.432 192.176 164.784V188.016C192.176 192.368 191.088 196.304 188.912 199.824C186.8 203.344 183.92 206.128 180.272 208.176C176.624 210.224 172.496 211.248 167.888 211.248ZM167.888 203.088C170.64 203.088 173.136 202.448 175.376 201.168C177.68 199.888 179.504 198.192 180.848 196.08C182.256 193.904 182.96 191.504 182.96 188.88V163.92C182.96 161.296 182.256 158.928 180.848 156.816C179.504 154.64 177.68 152.912 175.376 151.632C173.136 150.352 170.64 149.712 167.888 149.712C165.136 149.712 162.576 150.352 160.208 151.632C157.904 152.912 156.048 154.64 154.64 156.816C153.296 158.928 152.624 161.296 152.624 163.92V188.88C152.624 191.504 153.296 193.904 154.64 196.08C156.048 198.192 157.904 199.888 160.208 201.168C162.512 202.448 165.072 203.088 167.888 203.088Z" fill="white"/>
<path d="M219.866 178.512C217.05 178.512 214.394 177.872 211.898 176.592C209.466 175.312 207.514 173.552 206.042 171.312C204.57 169.008 203.834 166.416 203.834 163.536V156.624C203.834 153.68 204.57 151.088 206.042 148.848C207.514 146.544 209.466 144.784 211.898 143.568C214.394 142.288 217.05 141.648 219.866 141.648C222.81 141.648 225.498 142.288 227.93 143.568C230.362 144.784 232.314 146.544 233.786 148.848C235.258 151.088 235.994 153.68 235.994 156.624V163.536C235.994 166.416 235.258 169.008 233.786 171.312C232.314 173.552 230.362 175.312 227.93 176.592C225.498 177.872 222.81 178.512 219.866 178.512ZM219.962 172.08C221.498 172.08 222.938 171.696 224.282 170.928C225.69 170.16 226.81 169.104 227.642 167.76C228.538 166.352 228.986 164.688 228.986 162.768V157.296C228.986 155.376 228.538 153.744 227.642 152.4C226.81 150.992 225.69 149.904 224.282 149.136C222.938 148.368 221.498 147.984 219.962 147.984C218.362 147.984 216.858 148.368 215.45 149.136C214.106 149.904 212.986 150.992 212.09 152.4C211.258 153.744 210.842 155.376 210.842 157.296V162.768C210.842 164.688 211.258 166.352 212.09 167.76C212.986 169.104 214.106 170.16 215.45 170.928C216.858 171.696 218.362 172.08 219.962 172.08ZM265.37 211.152C262.49 211.152 259.802 210.512 257.306 209.232C254.874 207.952 252.922 206.192 251.45 203.952C249.978 201.712 249.242 199.12 249.242 196.176V189.264C249.242 186.32 249.978 183.728 251.45 181.488C252.922 179.248 254.874 177.488 257.306 176.208C259.802 174.928 262.49 174.288 265.37 174.288C268.25 174.288 270.906 174.928 273.338 176.208C275.77 177.488 277.722 179.248 279.194 181.488C280.666 183.728 281.402 186.32 281.402 189.264V196.176C281.402 199.12 280.666 201.712 279.194 203.952C277.722 206.192 275.77 207.952 273.338 209.232C270.906 210.512 268.25 211.152 265.37 211.152ZM265.37 204.72C266.97 204.72 268.442 204.336 269.786 203.568C271.194 202.8 272.314 201.744 273.146 200.4C274.042 198.992 274.49 197.328 274.49 195.408V190.032C274.49 188.112 274.042 186.448 273.146 185.04C272.314 183.632 271.194 182.544 269.786 181.776C268.442 181.008 266.97 180.624 265.37 180.624C263.77 180.624 262.266 181.008 260.858 181.776C259.514 182.544 258.394 183.632 257.498 185.04C256.666 186.448 256.25 188.112 256.25 190.032V195.408C256.25 197.328 256.666 198.992 257.498 200.4C258.394 201.744 259.514 202.8 260.858 203.568C262.266 204.336 263.77 204.72 265.37 204.72ZM215.738 210L262.01 142.8H269.306L223.034 210H215.738Z" fill="white"/>
</svg>
