<svg width="559" height="95" viewBox="0 0 559 95" fill="none" xmlns="http://www.w3.org/2000/svg">
<path d="M113.308 2.376V4.936C110.748 5.02133 108.785 5.36266 107.42 5.96C106.054 6.472 105.116 7.496 104.604 9.032C104.177 10.4827 103.964 12.7867 103.964 15.944V79.432C103.964 82.504 104.22 84.808 104.732 86.344C105.244 87.88 106.14 88.904 107.42 89.416C108.785 89.928 110.748 90.2693 113.308 90.44V93C110.833 92.8293 107.633 92.744 103.708 92.744C99.8675 92.6587 95.9422 92.616 91.9315 92.616C87.5795 92.616 83.4835 92.6587 79.6435 92.744C75.8888 92.744 72.8168 92.8293 70.4275 93V90.44C73.3288 90.2693 75.5048 89.928 76.9555 89.416C78.4915 88.904 79.5155 87.88 80.0275 86.344C80.5395 84.808 80.7955 82.504 80.7955 79.432V10.568L81.9475 10.44L49.9475 93H47.8995L12.5715 10.696V69.96C12.5715 75.1653 12.8275 79.176 13.3395 81.992C13.8515 84.7227 15.0035 86.6853 16.7955 87.88C18.5875 89.0747 21.4035 89.928 25.2435 90.44V93C23.6222 92.8293 21.4462 92.744 18.7155 92.744C16.0702 92.6587 13.5528 92.616 11.1635 92.616C9.28617 92.616 7.3235 92.6587 5.2755 92.744C3.31283 92.744 1.64883 92.8293 0.2835 93V90.44C3.01417 89.928 5.0195 89.1173 6.2995 88.008C7.66483 86.8133 8.56083 84.9787 8.9875 82.504C9.41417 79.944 9.6275 76.4453 9.6275 72.008V15.944C9.6275 12.7867 9.41417 10.4827 8.9875 9.032C8.56083 7.496 7.66483 6.472 6.2995 5.96C4.93417 5.36266 2.92883 5.02133 0.2835 4.936V2.376C1.64883 2.46133 3.31283 2.54666 5.2755 2.632C7.3235 2.71733 9.28617 2.75999 11.1635 2.75999C15.5155 2.75999 19.6968 2.71733 23.7075 2.632C27.7182 2.54666 31.3448 2.46133 34.5875 2.376L60.6995 63.304L57.1155 66.888L81.8195 2.75999C83.4408 2.75999 85.1048 2.75999 86.8115 2.75999C88.6035 2.75999 90.3102 2.75999 91.9315 2.75999C95.9422 2.75999 99.8675 2.71733 103.708 2.632C107.633 2.54666 110.833 2.46133 113.308 2.376ZM191.297 2.376C190.955 6.38667 190.699 10.2693 190.529 14.024C190.443 17.7787 190.401 20.6373 190.401 22.6C190.401 24.3067 190.443 25.9707 190.529 27.592C190.614 29.2133 190.699 30.536 190.785 31.56H187.84C186.902 24.904 185.366 19.656 183.233 15.816C181.185 11.976 178.625 9.288 175.553 7.752C172.566 6.13066 169.238 5.31999 165.569 5.31999H162.113C159.809 5.31999 158.017 5.53333 156.737 5.96C155.542 6.30133 154.731 7.06933 154.305 8.26399C153.963 9.45866 153.793 11.336 153.793 13.896V81.48C153.793 83.9547 153.963 85.832 154.305 87.112C154.731 88.3067 155.542 89.1173 156.737 89.544C158.017 89.8853 159.809 90.056 162.113 90.056H167.361C170.689 90.056 173.846 89.2027 176.833 87.496C179.905 85.704 182.635 82.7173 185.025 78.536C187.414 74.2693 189.206 68.5093 190.401 61.256H193.345C193.089 64.1573 192.961 67.912 192.961 72.52C192.961 74.568 193.003 77.4693 193.089 81.224C193.174 84.9787 193.43 88.904 193.857 93C189.505 92.8293 184.598 92.744 179.137 92.744C173.675 92.6587 168.811 92.616 164.545 92.616C162.326 92.616 159.51 92.616 156.097 92.616C152.683 92.616 148.971 92.6587 144.961 92.744C140.95 92.744 136.897 92.7867 132.801 92.872C128.705 92.872 124.865 92.9147 121.281 93V90.44C123.926 90.2693 125.889 89.928 127.169 89.416C128.534 88.904 129.43 87.88 129.857 86.344C130.369 84.808 130.625 82.504 130.625 79.432V15.944C130.625 12.7867 130.369 10.4827 129.857 9.032C129.43 7.496 128.534 6.472 127.169 5.96C125.889 5.36266 123.926 5.02133 121.281 4.936V2.376C124.95 2.46133 128.79 2.54666 132.801 2.632C136.897 2.632 140.907 2.67466 144.833 2.75999C148.843 2.75999 152.555 2.75999 155.969 2.75999C159.467 2.75999 162.326 2.75999 164.545 2.75999C168.47 2.75999 172.907 2.75999 177.857 2.75999C182.891 2.67466 187.371 2.54666 191.297 2.376ZM171.969 46.152C171.969 46.152 171.969 46.5787 171.969 47.432C171.969 48.2853 171.969 48.712 171.969 48.712H149.953C149.953 48.712 149.953 48.2853 149.953 47.432C149.953 46.5787 149.953 46.152 149.953 46.152H171.969ZM175.681 29.256C175.339 34.12 175.169 37.832 175.169 40.392C175.254 42.952 175.297 45.2987 175.297 47.432C175.297 49.5653 175.339 51.912 175.425 54.472C175.51 57.032 175.723 60.744 176.065 65.608H173.121C172.694 62.536 171.798 59.72 170.433 57.16C169.067 54.6 167.233 52.552 164.929 51.016C162.625 49.48 159.809 48.712 156.481 48.712V46.152C158.955 46.152 161.131 45.64 163.009 44.616C164.886 43.5067 166.465 42.0987 167.745 40.392C169.11 38.6853 170.219 36.8507 171.073 34.888C171.926 32.9253 172.481 31.048 172.737 29.256H175.681ZM246.286 2.376V4.936C243.384 5.02133 241.166 5.36266 239.63 5.96C238.179 6.472 237.198 7.496 236.686 9.032C236.174 10.4827 235.918 12.7867 235.918 15.944V81.48C235.918 83.9547 236.088 85.832 236.43 87.112C236.856 88.3067 237.582 89.1173 238.606 89.544C239.63 89.8853 241.166 90.056 243.214 90.056H248.462C251.022 90.056 253.582 89.288 256.142 87.752C258.702 86.216 261.091 84.0827 263.31 81.352C265.528 78.536 267.448 75.336 269.07 71.752C270.691 68.0827 271.843 64.1573 272.526 59.976H275.47C275.214 62.9627 275.086 66.8027 275.086 71.496C275.086 73.6293 275.128 76.7013 275.214 80.712C275.299 84.6373 275.555 88.7333 275.982 93C271.63 92.8293 266.723 92.744 261.262 92.744C255.8 92.6587 250.936 92.616 246.67 92.616C244.451 92.616 241.635 92.616 238.222 92.616C234.808 92.616 231.096 92.6587 227.086 92.744C223.075 92.744 219.022 92.7867 214.926 92.872C210.83 92.872 206.99 92.9147 203.406 93V90.44C206.051 90.2693 208.014 89.928 209.294 89.416C210.659 88.904 211.555 87.88 211.982 86.344C212.494 84.808 212.75 82.504 212.75 79.432V15.944C212.75 12.7867 212.494 10.4827 211.982 9.032C211.555 7.496 210.659 6.472 209.294 5.96C208.014 5.36266 206.051 5.02133 203.406 4.936V2.376C205.71 2.46133 208.782 2.54666 212.622 2.632C216.462 2.71733 220.558 2.75999 224.91 2.75999C228.92 2.75999 232.846 2.71733 236.686 2.632C240.526 2.54666 243.726 2.46133 246.286 2.376ZM330.403 0.583992C339.789 0.583992 347.981 2.41866 354.979 6.088C361.976 9.75733 367.395 15.048 371.235 21.96C375.16 28.7867 377.123 37.1067 377.123 46.92C377.123 56.4773 375.117 64.84 371.107 72.008C367.181 79.176 361.677 84.7653 354.595 88.776C347.512 92.7867 339.405 94.792 330.275 94.792C320.973 94.792 312.781 92.9573 305.699 89.288C298.701 85.6187 293.24 80.328 289.315 73.416C285.475 66.504 283.555 58.184 283.555 48.456C283.555 38.8987 285.56 30.536 289.571 23.368C293.667 16.2 299.213 10.6107 306.211 6.6C313.208 2.58933 321.272 0.583992 330.403 0.583992ZM329.891 2.88799C325.368 2.88799 321.443 4.80799 318.115 8.64799C314.787 12.488 312.184 17.7787 310.307 24.52C308.515 31.2613 307.619 39.0693 307.619 47.944C307.619 56.9893 308.643 64.8827 310.691 71.624C312.824 78.28 315.64 83.4427 319.139 87.112C322.637 90.696 326.52 92.488 330.787 92.488C335.309 92.488 339.235 90.568 342.562 86.728C345.976 82.888 348.579 77.5973 350.371 70.856C352.163 64.0293 353.059 56.2213 353.059 47.432C353.059 38.3013 352.035 30.408 349.987 23.752C347.939 17.096 345.123 11.976 341.539 8.392C338.04 4.72266 334.157 2.88799 329.891 2.88799ZM426.244 2.376C443.652 2.376 456.537 6.216 464.9 13.896C473.348 21.4907 477.572 32.4133 477.572 46.664C477.572 55.9653 475.481 64.1147 471.3 71.112C467.204 78.024 461.23 83.4 453.38 87.24C445.529 91.08 436.1 93 425.092 93C423.726 93 421.934 92.9573 419.716 92.872C417.497 92.7867 415.15 92.744 412.676 92.744C410.286 92.6587 408.11 92.616 406.148 92.616C402.137 92.616 398.212 92.6587 394.372 92.744C390.532 92.744 387.46 92.8293 385.156 93V90.44C387.801 90.2693 389.764 89.928 391.044 89.416C392.409 88.904 393.305 87.88 393.732 86.344C394.244 84.808 394.5 82.504 394.5 79.432V15.944C394.5 12.7867 394.244 10.4827 393.732 9.032C393.305 7.496 392.409 6.472 391.044 5.96C389.764 5.36266 387.801 5.02133 385.156 4.936V2.376C387.46 2.46133 390.532 2.58933 394.372 2.75999C398.212 2.84533 402.052 2.84533 405.892 2.75999C408.964 2.67466 412.462 2.58933 416.388 2.504C420.313 2.41867 423.598 2.376 426.244 2.376ZM427.14 4.67999C423.214 4.67999 420.654 5.40533 419.46 6.856C418.265 8.30666 417.668 11.2507 417.668 15.688V79.688C417.668 84.1253 418.265 87.0693 419.46 88.52C420.74 89.9707 423.342 90.696 427.268 90.696C433.753 90.696 438.916 89.032 442.756 85.704C446.596 82.2907 449.326 77.3413 450.948 70.856C452.654 64.3707 453.507 56.4773 453.507 47.176C453.507 37.6187 452.612 29.7253 450.82 23.496C449.028 17.1813 446.169 12.488 442.244 9.41599C438.404 6.25866 433.369 4.67999 427.14 4.67999ZM558.941 2.24799V4.808C557.063 5.66133 555.058 7.32533 552.925 9.8C550.877 12.1893 548.615 15.816 546.141 20.68L522.461 67.528H515.165L485.213 12.104C483.762 9.288 482.397 7.41066 481.117 6.47199C479.837 5.448 478.727 4.936 477.788 4.936V2.24799C480.263 2.504 482.823 2.71733 485.469 2.88799C488.114 2.97333 491.015 3.016 494.173 3.016C498.269 3.016 502.663 2.93066 507.357 2.75999C512.05 2.58933 516.359 2.41866 520.285 2.24799V4.936C518.151 4.936 516.189 5.064 514.397 5.31999C512.69 5.57599 511.453 6.08799 510.685 6.856C510.002 7.624 510.087 8.904 510.941 10.696L530.781 48.712L525.789 55.24L537.821 31.176C541.149 24.6053 542.941 19.4427 543.197 15.688C543.538 11.848 542.727 9.11733 540.765 7.49599C538.887 5.78933 536.242 4.89333 532.829 4.808V2.24799C535.901 2.33333 538.674 2.41867 541.149 2.504C543.709 2.58933 546.397 2.632 549.213 2.632C551.005 2.632 552.754 2.58933 554.461 2.504C556.167 2.41867 557.661 2.33333 558.941 2.24799ZM532.573 45V79.432C532.573 82.504 532.786 84.808 533.213 86.344C533.725 87.88 534.621 88.904 535.901 89.416C537.266 89.928 539.271 90.2693 541.917 90.44V93C539.527 92.8293 536.37 92.744 532.445 92.744C528.605 92.6587 524.807 92.616 521.053 92.616C516.871 92.616 512.861 92.6587 509.021 92.744C505.266 92.744 502.279 92.8293 500.061 93V90.44C502.706 90.2693 504.669 89.928 505.949 89.416C507.314 88.904 508.21 87.88 508.637 86.344C509.149 84.808 509.405 82.504 509.405 79.432V53.192L521.949 61.128L532.573 45Z" fill="white"/>
</svg>
