<svg width="353" height="353" viewBox="0 0 353 353" fill="none" xmlns="http://www.w3.org/2000/svg">
<path d="M216.909 25.6914C219.821 14.8239 213.374 3.52858 202.244 1.88757C186.112 -0.490889 169.694 -0.627018 153.462 1.50998C130.482 4.53535 108.323 12.0573 88.2501 23.6465C68.1771 35.2356 50.5833 50.665 36.4732 69.0536C22.3631 87.4421 12.0131 108.43 6.01412 130.818C0.0151196 153.207 -1.51539 176.558 1.50998 199.538C4.53535 222.518 12.0573 244.677 23.6465 264.75C35.2356 284.823 50.665 302.417 69.0536 316.527C82.0425 326.494 96.3283 334.584 111.489 340.591C121.948 344.735 133.179 338.176 136.091 327.309C139.003 316.441 132.465 305.409 122.155 300.905C112.103 296.514 102.598 290.911 93.8562 284.203C79.7124 273.35 67.8447 259.818 58.9308 244.379C50.0168 228.939 44.2312 211.895 41.9042 194.22C39.5772 176.544 40.7544 158.584 45.3686 141.363C49.9828 124.143 57.9436 108 68.7966 93.8562C79.6495 79.7124 93.182 67.8447 108.621 58.9308C124.061 50.0168 141.105 44.2312 158.78 41.9042C169.705 40.466 180.738 40.3663 191.638 41.5894C202.819 42.844 213.997 36.5588 216.909 25.6914Z" fill="url(#paint0_linear_18_27)"/>
<path d="M80.28 210V201.84H101.016C103.704 201.84 106.04 201.232 108.024 200.016C110.072 198.736 111.64 197.072 112.728 195.024C113.816 192.976 114.36 190.8 114.36 188.496C114.36 186.256 113.816 184.176 112.728 182.256C111.704 180.272 110.2 178.704 108.216 177.552C106.296 176.336 104.024 175.728 101.4 175.728H82.008V142.8H119.16V150.96H90.84V167.76H102.552C106.712 167.76 110.36 168.72 113.496 170.64C116.632 172.56 119.064 175.12 120.792 178.32C122.584 181.456 123.48 184.88 123.48 188.592C123.48 192.368 122.584 195.888 120.792 199.152C119 202.416 116.504 205.04 113.304 207.024C110.104 209.008 106.392 210 102.168 210H80.28Z" fill="white"/>
<path d="M159.544 211.248C154.872 211.248 150.68 210.224 146.968 208.176C143.32 206.128 140.408 203.344 138.232 199.824C136.12 196.304 135.064 192.368 135.064 188.016V164.784C135.064 160.432 136.12 156.496 138.232 152.976C140.408 149.456 143.32 146.704 146.968 144.72C150.68 142.672 154.872 141.648 159.544 141.648C164.152 141.648 168.28 142.672 171.928 144.72C175.576 146.768 178.456 149.552 180.568 153.072C182.744 156.528 183.832 160.432 183.832 164.784V188.016C183.832 192.368 182.744 196.304 180.568 199.824C178.456 203.344 175.576 206.128 171.928 208.176C168.28 210.224 164.152 211.248 159.544 211.248ZM159.544 203.088C162.296 203.088 164.792 202.448 167.032 201.168C169.336 199.888 171.16 198.192 172.504 196.08C173.912 193.904 174.616 191.504 174.616 188.88V163.92C174.616 161.296 173.912 158.928 172.504 156.816C171.16 154.64 169.336 152.912 167.032 151.632C164.792 150.352 162.296 149.712 159.544 149.712C156.792 149.712 154.232 150.352 151.864 151.632C149.56 152.912 147.704 154.64 146.296 156.816C144.952 158.928 144.28 161.296 144.28 163.92V188.88C144.28 191.504 144.952 193.904 146.296 196.08C147.704 198.192 149.56 199.888 151.864 201.168C154.168 202.448 156.728 203.088 159.544 203.088Z" fill="white"/>
<path d="M211.522 178.512C208.706 178.512 206.05 177.872 203.554 176.592C201.122 175.312 199.17 173.552 197.698 171.312C196.226 169.008 195.49 166.416 195.49 163.536V156.624C195.49 153.68 196.226 151.088 197.698 148.848C199.17 146.544 201.122 144.784 203.554 143.568C206.05 142.288 208.706 141.648 211.522 141.648C214.466 141.648 217.154 142.288 219.586 143.568C222.018 144.784 223.97 146.544 225.442 148.848C226.914 151.088 227.65 153.68 227.65 156.624V163.536C227.65 166.416 226.914 169.008 225.442 171.312C223.97 173.552 222.018 175.312 219.586 176.592C217.154 177.872 214.466 178.512 211.522 178.512ZM211.618 172.08C213.154 172.08 214.594 171.696 215.938 170.928C217.346 170.16 218.466 169.104 219.298 167.76C220.194 166.352 220.642 164.688 220.642 162.768V157.296C220.642 155.376 220.194 153.744 219.298 152.4C218.466 150.992 217.346 149.904 215.938 149.136C214.594 148.368 213.154 147.984 211.618 147.984C210.018 147.984 208.514 148.368 207.106 149.136C205.762 149.904 204.642 150.992 203.746 152.4C202.914 153.744 202.498 155.376 202.498 157.296V162.768C202.498 164.688 202.914 166.352 203.746 167.76C204.642 169.104 205.762 170.16 207.106 170.928C208.514 171.696 210.018 172.08 211.618 172.08ZM257.026 211.152C254.146 211.152 251.458 210.512 248.962 209.232C246.53 207.952 244.578 206.192 243.106 203.952C241.634 201.712 240.898 199.12 240.898 196.176V189.264C240.898 186.32 241.634 183.728 243.106 181.488C244.578 179.248 246.53 177.488 248.962 176.208C251.458 174.928 254.146 174.288 257.026 174.288C259.906 174.288 262.562 174.928 264.994 176.208C267.426 177.488 269.378 179.248 270.85 181.488C272.322 183.728 273.058 186.32 273.058 189.264V196.176C273.058 199.12 272.322 201.712 270.85 203.952C269.378 206.192 267.426 207.952 264.994 209.232C262.562 210.512 259.906 211.152 257.026 211.152ZM257.026 204.72C258.626 204.72 260.098 204.336 261.442 203.568C262.85 202.8 263.97 201.744 264.802 200.4C265.698 198.992 266.146 197.328 266.146 195.408V190.032C266.146 188.112 265.698 186.448 264.802 185.04C263.97 183.632 262.85 182.544 261.442 181.776C260.098 181.008 258.626 180.624 257.026 180.624C255.426 180.624 253.922 181.008 252.514 181.776C251.17 182.544 250.05 183.632 249.154 185.04C248.322 186.448 247.906 188.112 247.906 190.032V195.408C247.906 197.328 248.322 198.992 249.154 200.4C250.05 201.744 251.17 202.8 252.514 203.568C253.922 204.336 255.426 204.72 257.026 204.72ZM207.394 210L253.666 142.8H260.962L214.69 210H207.394Z" fill="white"/>
<path d="M216.909 25.6914C219.821 14.8239 213.374 3.52858 202.244 1.88757C186.112 -0.490889 169.694 -0.627018 153.462 1.50998C130.482 4.53535 108.323 12.0573 88.2501 23.6465C68.1771 35.2356 50.5833 50.665 36.4732 69.0536C22.3631 87.4421 12.0131 108.43 6.01412 130.818C0.0151196 153.207 -1.51539 176.558 1.50998 199.538C4.53535 222.518 12.0573 244.677 23.6465 264.75C35.2356 284.823 50.665 302.417 69.0536 316.527C82.0425 326.494 96.3283 334.584 111.489 340.591C121.948 344.735 133.179 338.176 136.091 327.309C139.003 316.441 132.465 305.409 122.155 300.905C112.103 296.514 102.598 290.911 93.8562 284.203C79.7124 273.35 67.8447 259.818 58.9308 244.379C50.0168 228.939 44.2312 211.895 41.9042 194.22C39.5772 176.544 40.7544 158.584 45.3686 141.363C49.9828 124.143 57.9436 108 68.7966 93.8562C79.6495 79.7124 93.182 67.8447 108.621 58.9308C124.061 50.0168 141.105 44.2312 158.78 41.9042C169.705 40.466 180.738 40.3663 191.638 41.5894C202.819 42.844 213.997 36.5588 216.909 25.6914Z" fill="white"/>
<path d="M80.28 210V201.84H101.016C103.704 201.84 106.04 201.232 108.024 200.016C110.072 198.736 111.64 197.072 112.728 195.024C113.816 192.976 114.36 190.8 114.36 188.496C114.36 186.256 113.816 184.176 112.728 182.256C111.704 180.272 110.2 178.704 108.216 177.552C106.296 176.336 104.024 175.728 101.4 175.728H82.008V142.8H119.16V150.96H90.84V167.76H102.552C106.712 167.76 110.36 168.72 113.496 170.64C116.632 172.56 119.064 175.12 120.792 178.32C122.584 181.456 123.48 184.88 123.48 188.592C123.48 192.368 122.584 195.888 120.792 199.152C119 202.416 116.504 205.04 113.304 207.024C110.104 209.008 106.392 210 102.168 210H80.28Z" fill="white"/>
<path d="M159.544 211.248C154.872 211.248 150.68 210.224 146.968 208.176C143.32 206.128 140.408 203.344 138.232 199.824C136.12 196.304 135.064 192.368 135.064 188.016V164.784C135.064 160.432 136.12 156.496 138.232 152.976C140.408 149.456 143.32 146.704 146.968 144.72C150.68 142.672 154.872 141.648 159.544 141.648C164.152 141.648 168.28 142.672 171.928 144.72C175.576 146.768 178.456 149.552 180.568 153.072C182.744 156.528 183.832 160.432 183.832 164.784V188.016C183.832 192.368 182.744 196.304 180.568 199.824C178.456 203.344 175.576 206.128 171.928 208.176C168.28 210.224 164.152 211.248 159.544 211.248ZM159.544 203.088C162.296 203.088 164.792 202.448 167.032 201.168C169.336 199.888 171.16 198.192 172.504 196.08C173.912 193.904 174.616 191.504 174.616 188.88V163.92C174.616 161.296 173.912 158.928 172.504 156.816C171.16 154.64 169.336 152.912 167.032 151.632C164.792 150.352 162.296 149.712 159.544 149.712C156.792 149.712 154.232 150.352 151.864 151.632C149.56 152.912 147.704 154.64 146.296 156.816C144.952 158.928 144.28 161.296 144.28 163.92V188.88C144.28 191.504 144.952 193.904 146.296 196.08C147.704 198.192 149.56 199.888 151.864 201.168C154.168 202.448 156.728 203.088 159.544 203.088Z" fill="white"/>
<path d="M211.522 178.512C208.706 178.512 206.05 177.872 203.554 176.592C201.122 175.312 199.17 173.552 197.698 171.312C196.226 169.008 195.49 166.416 195.49 163.536V156.624C195.49 153.68 196.226 151.088 197.698 148.848C199.17 146.544 201.122 144.784 203.554 143.568C206.05 142.288 208.706 141.648 211.522 141.648C214.466 141.648 217.154 142.288 219.586 143.568C222.018 144.784 223.97 146.544 225.442 148.848C226.914 151.088 227.65 153.68 227.65 156.624V163.536C227.65 166.416 226.914 169.008 225.442 171.312C223.97 173.552 222.018 175.312 219.586 176.592C217.154 177.872 214.466 178.512 211.522 178.512ZM211.618 172.08C213.154 172.08 214.594 171.696 215.938 170.928C217.346 170.16 218.466 169.104 219.298 167.76C220.194 166.352 220.642 164.688 220.642 162.768V157.296C220.642 155.376 220.194 153.744 219.298 152.4C218.466 150.992 217.346 149.904 215.938 149.136C214.594 148.368 213.154 147.984 211.618 147.984C210.018 147.984 208.514 148.368 207.106 149.136C205.762 149.904 204.642 150.992 203.746 152.4C202.914 153.744 202.498 155.376 202.498 157.296V162.768C202.498 164.688 202.914 166.352 203.746 167.76C204.642 169.104 205.762 170.16 207.106 170.928C208.514 171.696 210.018 172.08 211.618 172.08ZM257.026 211.152C254.146 211.152 251.458 210.512 248.962 209.232C246.53 207.952 244.578 206.192 243.106 203.952C241.634 201.712 240.898 199.12 240.898 196.176V189.264C240.898 186.32 241.634 183.728 243.106 181.488C244.578 179.248 246.53 177.488 248.962 176.208C251.458 174.928 254.146 174.288 257.026 174.288C259.906 174.288 262.562 174.928 264.994 176.208C267.426 177.488 269.378 179.248 270.85 181.488C272.322 183.728 273.058 186.32 273.058 189.264V196.176C273.058 199.12 272.322 201.712 270.85 203.952C269.378 206.192 267.426 207.952 264.994 209.232C262.562 210.512 259.906 211.152 257.026 211.152ZM257.026 204.72C258.626 204.72 260.098 204.336 261.442 203.568C262.85 202.8 263.97 201.744 264.802 200.4C265.698 198.992 266.146 197.328 266.146 195.408V190.032C266.146 188.112 265.698 186.448 264.802 185.04C263.97 183.632 262.85 182.544 261.442 181.776C260.098 181.008 258.626 180.624 257.026 180.624C255.426 180.624 253.922 181.008 252.514 181.776C251.17 182.544 250.05 183.632 249.154 185.04C248.322 186.448 247.906 188.112 247.906 190.032V195.408C247.906 197.328 248.322 198.992 249.154 200.4C250.05 201.744 251.17 202.8 252.514 203.568C253.922 204.336 255.426 204.72 257.026 204.72ZM207.394 210L253.666 142.8H260.962L214.69 210H207.394Z" fill="white"/>
<defs>
<linearGradient id="paint0_linear_18_27" x1="176.5" y1="0" x2="176.5" y2="353" gradientUnits="userSpaceOnUse">
<stop offset="0.317708" stop-color="#9C79DD"/>
<stop offset="1" stop-color="#BFAFDD" stop-opacity="0"/>
</linearGradient>
</defs>
</svg>
