<svg width="353" height="353" viewBox="0 0 353 353" fill="none" xmlns="http://www.w3.org/2000/svg">
<path d="M216.909 25.6914C219.821 14.8239 213.374 3.52853 202.244 1.88753C181.532 -1.16602 160.387 -0.518241 139.804 3.85694C112.559 9.648 87.0713 21.8049 65.425 39.3337C43.7788 56.8625 26.5883 79.2655 15.2593 104.711C3.93021 130.156 -1.21583 157.922 0.241906 185.737C1.69964 213.553 9.71975 240.628 23.6465 264.75C37.5733 288.872 57.0112 309.355 80.3712 324.525C103.731 339.695 130.35 349.122 158.051 352.033C178.979 354.233 200.076 352.667 220.355 347.465C231.253 344.67 236.483 332.762 232.451 322.259C228.42 311.755 216.645 306.673 205.657 309.089C191.474 312.208 176.839 313.041 162.309 311.514C141.003 309.274 120.529 302.024 102.561 290.356C84.5937 278.687 69.6427 262.932 58.9308 244.379C48.2188 225.825 42.0501 204.999 40.9288 183.605C39.8076 162.21 43.7657 140.854 52.4796 121.283C61.1935 101.711 74.4158 84.4793 91.0653 70.9968C107.715 57.5143 127.319 48.1636 148.275 43.7094C162.565 40.6719 177.207 39.9701 191.638 41.5894C202.819 42.8439 213.997 36.5588 216.909 25.6914Z" fill="white"/>
<path d="M104.856 211.248C100.056 211.248 95.768 210.32 91.992 208.464C88.28 206.544 85.336 203.92 83.16 200.592C81.048 197.2 79.992 193.264 79.992 188.784C79.992 184.624 80.792 180.624 82.392 176.784C84.056 172.944 86.328 168.912 89.208 164.688L103.8 142.8H114.456L96.408 170.064C97.88 168.912 99.48 168.08 101.208 167.568C103 166.992 104.824 166.704 106.68 166.704C111.416 166.704 115.512 167.728 118.968 169.776C122.424 171.76 125.048 174.416 126.84 177.744C128.696 181.072 129.624 184.752 129.624 188.784C129.624 193.264 128.536 197.2 126.36 200.592C124.248 203.92 121.336 206.544 117.624 208.464C113.912 210.32 109.656 211.248 104.856 211.248ZM104.856 203.088C107.864 203.088 110.552 202.512 112.92 201.36C115.288 200.208 117.112 198.544 118.392 196.368C119.736 194.192 120.408 191.632 120.408 188.688C120.408 186.256 119.832 183.952 118.68 181.776C117.592 179.6 115.896 177.872 113.592 176.592C111.288 175.248 108.44 174.576 105.048 174.576C102.04 174.576 99.32 175.184 96.888 176.4C94.52 177.552 92.632 179.216 91.224 181.392C89.816 183.504 89.112 185.968 89.112 188.784C89.112 191.728 89.784 194.288 91.128 196.464C92.536 198.576 94.424 200.208 96.792 201.36C99.16 202.512 101.848 203.088 104.856 203.088Z" fill="white"/>
<path d="M165.825 211.248C161.153 211.248 156.961 210.224 153.249 208.176C149.601 206.128 146.689 203.344 144.513 199.824C142.401 196.304 141.345 192.368 141.345 188.016V164.784C141.345 160.432 142.401 156.496 144.513 152.976C146.689 149.456 149.601 146.704 153.249 144.72C156.961 142.672 161.153 141.648 165.825 141.648C170.433 141.648 174.561 142.672 178.209 144.72C181.857 146.768 184.737 149.552 186.849 153.072C189.025 156.528 190.113 160.432 190.113 164.784V188.016C190.113 192.368 189.025 196.304 186.849 199.824C184.737 203.344 181.857 206.128 178.209 208.176C174.561 210.224 170.433 211.248 165.825 211.248ZM165.825 203.088C168.577 203.088 171.073 202.448 173.313 201.168C175.617 199.888 177.441 198.192 178.785 196.08C180.193 193.904 180.897 191.504 180.897 188.88V163.92C180.897 161.296 180.193 158.928 178.785 156.816C177.441 154.64 175.617 152.912 173.313 151.632C171.073 150.352 168.577 149.712 165.825 149.712C163.073 149.712 160.513 150.352 158.145 151.632C155.841 152.912 153.985 154.64 152.577 156.816C151.233 158.928 150.561 161.296 150.561 163.92V188.88C150.561 191.504 151.233 193.904 152.577 196.08C153.985 198.192 155.841 199.888 158.145 201.168C160.449 202.448 163.009 203.088 165.825 203.088Z" fill="white"/>
<path d="M217.803 178.512C214.987 178.512 212.331 177.872 209.835 176.592C207.403 175.312 205.451 173.552 203.979 171.312C202.507 169.008 201.771 166.416 201.771 163.536V156.624C201.771 153.68 202.507 151.088 203.979 148.848C205.451 146.544 207.403 144.784 209.835 143.568C212.331 142.288 214.987 141.648 217.803 141.648C220.747 141.648 223.435 142.288 225.867 143.568C228.299 144.784 230.251 146.544 231.723 148.848C233.195 151.088 233.931 153.68 233.931 156.624V163.536C233.931 166.416 233.195 169.008 231.723 171.312C230.251 173.552 228.299 175.312 225.867 176.592C223.435 177.872 220.747 178.512 217.803 178.512ZM217.899 172.08C219.435 172.08 220.875 171.696 222.219 170.928C223.627 170.16 224.747 169.104 225.579 167.76C226.475 166.352 226.923 164.688 226.923 162.768V157.296C226.923 155.376 226.475 153.744 225.579 152.4C224.747 150.992 223.627 149.904 222.219 149.136C220.875 148.368 219.435 147.984 217.899 147.984C216.299 147.984 214.795 148.368 213.387 149.136C212.043 149.904 210.923 150.992 210.027 152.4C209.195 153.744 208.779 155.376 208.779 157.296V162.768C208.779 164.688 209.195 166.352 210.027 167.76C210.923 169.104 212.043 170.16 213.387 170.928C214.795 171.696 216.299 172.08 217.899 172.08ZM263.307 211.152C260.427 211.152 257.739 210.512 255.243 209.232C252.811 207.952 250.859 206.192 249.387 203.952C247.915 201.712 247.179 199.12 247.179 196.176V189.264C247.179 186.32 247.915 183.728 249.387 181.488C250.859 179.248 252.811 177.488 255.243 176.208C257.739 174.928 260.427 174.288 263.307 174.288C266.187 174.288 268.843 174.928 271.275 176.208C273.707 177.488 275.659 179.248 277.131 181.488C278.603 183.728 279.339 186.32 279.339 189.264V196.176C279.339 199.12 278.603 201.712 277.131 203.952C275.659 206.192 273.707 207.952 271.275 209.232C268.843 210.512 266.187 211.152 263.307 211.152ZM263.307 204.72C264.907 204.72 266.379 204.336 267.723 203.568C269.131 202.8 270.251 201.744 271.083 200.4C271.979 198.992 272.427 197.328 272.427 195.408V190.032C272.427 188.112 271.979 186.448 271.083 185.04C270.251 183.632 269.131 182.544 267.723 181.776C266.379 181.008 264.907 180.624 263.307 180.624C261.707 180.624 260.203 181.008 258.795 181.776C257.451 182.544 256.331 183.632 255.435 185.04C254.603 186.448 254.187 188.112 254.187 190.032V195.408C254.187 197.328 254.603 198.992 255.435 200.4C256.331 201.744 257.451 202.8 258.795 203.568C260.203 204.336 261.707 204.72 263.307 204.72ZM213.675 210L259.947 142.8H267.243L220.971 210H213.675Z" fill="white"/>
</svg>
