<svg width="353" height="353" viewBox="0 0 353 353" fill="none" xmlns="http://www.w3.org/2000/svg">
<path d="M216.909 25.6913C219.821 14.8239 213.374 3.52821 202.243 1.8871C167.718 -3.2034 132.288 2.03847 100.515 17.1936C62.5835 35.2859 32.3525 66.319 15.2593 104.711C-1.83392 143.103 -4.66746 186.334 7.26832 226.629C19.2041 266.923 45.1259 301.637 80.3712 324.525C115.616 347.414 157.872 356.975 199.538 351.49C241.203 346.005 279.545 325.832 307.665 294.602C335.785 263.371 351.839 223.131 352.94 181.12C353.861 145.93 344.239 111.431 325.546 81.9609C319.52 72.4602 306.578 71.1648 297.835 78.2451C289.091 85.3255 287.897 98.0942 293.59 107.798C306.356 129.555 312.878 154.569 312.211 180.054C311.365 212.367 299.016 243.318 277.387 267.339C255.758 291.361 226.268 306.877 194.22 311.096C162.172 315.315 129.671 307.961 102.561 290.356C75.4519 272.751 55.5138 246.05 46.3333 215.057C37.1527 184.064 39.3322 150.812 52.4796 121.282C65.6271 91.7528 88.8797 67.8834 118.055 53.9675C141.066 42.992 166.569 38.7762 191.638 41.589C202.818 42.8435 213.997 36.5588 216.909 25.6913Z" fill="white"/>
<path d="M102.776 211L121.208 183.256C119.736 184.472 118.136 185.336 116.408 185.848C114.68 186.36 112.888 186.616 111.032 186.616C106.232 186.616 102.104 185.656 98.648 183.736C95.192 181.752 92.536 179.096 90.68 175.768C88.888 172.44 87.992 168.824 87.992 164.92C87.992 160.952 88.952 157.272 90.872 153.88C92.792 150.488 95.608 147.768 99.32 145.72C103.032 143.672 107.512 142.648 112.76 142.648C117.56 142.648 121.816 143.576 125.528 145.432C129.304 147.288 132.248 149.912 134.36 153.304C136.536 156.632 137.624 160.536 137.624 165.016C137.624 167.768 137.24 170.424 136.472 172.984C135.768 175.544 134.712 178.104 133.304 180.664C131.96 183.16 130.328 185.816 128.408 188.632L113.432 211H102.776ZM112.664 178.744C115.672 178.744 118.36 178.168 120.728 177.016C123.16 175.8 125.048 174.168 126.392 172.12C127.736 170.072 128.408 167.704 128.408 165.016C128.408 162.072 127.736 159.544 126.392 157.432C125.048 155.256 123.192 153.592 120.824 152.44C118.456 151.288 115.768 150.712 112.76 150.712C109.304 150.712 106.424 151.384 104.12 152.728C101.816 154.072 100.056 155.832 98.84 158.008C97.688 160.12 97.112 162.392 97.112 164.824C97.112 167.256 97.688 169.528 98.84 171.64C99.992 173.752 101.72 175.48 104.024 176.824C106.328 178.104 109.208 178.744 112.664 178.744Z" fill="white"/>
<path d="M173.825 212.248C169.153 212.248 164.961 211.224 161.249 209.176C157.601 207.128 154.689 204.344 152.513 200.824C150.401 197.304 149.345 193.368 149.345 189.016V165.784C149.345 161.432 150.401 157.496 152.513 153.976C154.689 150.456 157.601 147.704 161.249 145.72C164.961 143.672 169.153 142.648 173.825 142.648C178.433 142.648 182.561 143.672 186.209 145.72C189.857 147.768 192.737 150.552 194.849 154.072C197.025 157.528 198.113 161.432 198.113 165.784V189.016C198.113 193.368 197.025 197.304 194.849 200.824C192.737 204.344 189.857 207.128 186.209 209.176C182.561 211.224 178.433 212.248 173.825 212.248ZM173.825 204.088C176.577 204.088 179.073 203.448 181.313 202.168C183.617 200.888 185.441 199.192 186.785 197.08C188.193 194.904 188.897 192.504 188.897 189.88V164.92C188.897 162.296 188.193 159.928 186.785 157.816C185.441 155.64 183.617 153.912 181.313 152.632C179.073 151.352 176.577 150.712 173.825 150.712C171.073 150.712 168.513 151.352 166.145 152.632C163.841 153.912 161.985 155.64 160.577 157.816C159.233 159.928 158.561 162.296 158.561 164.92V189.88C158.561 192.504 159.233 194.904 160.577 197.08C161.985 199.192 163.841 200.888 166.145 202.168C168.449 203.448 171.009 204.088 173.825 204.088Z" fill="white"/>
<path d="M225.803 179.512C222.987 179.512 220.331 178.872 217.835 177.592C215.403 176.312 213.451 174.552 211.979 172.312C210.507 170.008 209.771 167.416 209.771 164.536V157.624C209.771 154.68 210.507 152.088 211.979 149.848C213.451 147.544 215.403 145.784 217.835 144.568C220.331 143.288 222.987 142.648 225.803 142.648C228.747 142.648 231.435 143.288 233.867 144.568C236.299 145.784 238.251 147.544 239.723 149.848C241.195 152.088 241.931 154.68 241.931 157.624V164.536C241.931 167.416 241.195 170.008 239.723 172.312C238.251 174.552 236.299 176.312 233.867 177.592C231.435 178.872 228.747 179.512 225.803 179.512ZM225.899 173.08C227.435 173.08 228.875 172.696 230.219 171.928C231.627 171.16 232.747 170.104 233.579 168.76C234.475 167.352 234.923 165.688 234.923 163.768V158.296C234.923 156.376 234.475 154.744 233.579 153.4C232.747 151.992 231.627 150.904 230.219 150.136C228.875 149.368 227.435 148.984 225.899 148.984C224.299 148.984 222.795 149.368 221.387 150.136C220.043 150.904 218.923 151.992 218.027 153.4C217.195 154.744 216.779 156.376 216.779 158.296V163.768C216.779 165.688 217.195 167.352 218.027 168.76C218.923 170.104 220.043 171.16 221.387 171.928C222.795 172.696 224.299 173.08 225.899 173.08ZM271.307 212.152C268.427 212.152 265.739 211.512 263.243 210.232C260.811 208.952 258.859 207.192 257.387 204.952C255.915 202.712 255.179 200.12 255.179 197.176V190.264C255.179 187.32 255.915 184.728 257.387 182.488C258.859 180.248 260.811 178.488 263.243 177.208C265.739 175.928 268.427 175.288 271.307 175.288C274.187 175.288 276.843 175.928 279.275 177.208C281.707 178.488 283.659 180.248 285.131 182.488C286.603 184.728 287.339 187.32 287.339 190.264V197.176C287.339 200.12 286.603 202.712 285.131 204.952C283.659 207.192 281.707 208.952 279.275 210.232C276.843 211.512 274.187 212.152 271.307 212.152ZM271.307 205.72C272.907 205.72 274.379 205.336 275.723 204.568C277.131 203.8 278.251 202.744 279.083 201.4C279.979 199.992 280.427 198.328 280.427 196.408V191.032C280.427 189.112 279.979 187.448 279.083 186.04C278.251 184.632 277.131 183.544 275.723 182.776C274.379 182.008 272.907 181.624 271.307 181.624C269.707 181.624 268.203 182.008 266.795 182.776C265.451 183.544 264.331 184.632 263.435 186.04C262.603 187.448 262.187 189.112 262.187 191.032V196.408C262.187 198.328 262.603 199.992 263.435 201.4C264.331 202.744 265.451 203.8 266.795 204.568C268.203 205.336 269.707 205.72 271.307 205.72ZM221.675 211L267.947 143.8H275.243L228.971 211H221.675Z" fill="white"/>
</svg>
